<svg width="600" height="450" viewBox="0 0 600 450" fill="none" xmlns="http://www.w3.org/2000/svg">
<path d="M512.419 343L87.8721 343C79.5966 343 71.6256 346.121 65.5506 351.741C58.8243 357.963 55 366.71 55 375.872V405.02C55 406.119 55.8911 407 56.9903 407H542C543.105 407 544 406.105 544 405V374.581C544 366.206 540.673 358.173 534.75 352.25C528.828 346.327 520.795 343 512.419 343Z" fill="#F4D88B" stroke="#4A545A" stroke-width="20"/>
<path d="M65 383C65 371.954 73.9543 363 85 363H514C525.046 363 534 371.954 534 383V397H65V383Z" fill="#F1CF6F"/>
<path d="M299.697 43C45.5415 43 75.0003 341 75.0003 341L299.697 343L525.5 341C525.5 341 553.853 43 299.697 43Z" fill="#F9DC88" stroke="#4A545A" stroke-width="20"/>
<path d="M310.522 62C68.9966 62 96.9915 331.193 96.9915 331.193L310.522 333L525.103 331.193C525.103 331.193 552.047 62 310.522 62Z" fill="#836B1F" fill-opacity="0.08"/>
<path d="M437.5 44V86L481 133V44C481 42.8954 480.105 42 479 42H439.5C438.395 42 437.5 42.8954 437.5 44Z" fill="#C06965" stroke="#4A545A" stroke-width="20"/>
<path d="M241 264L156.5 189L112 260.5L194 338.5H241V264Z" fill="#4B3E16" fill-opacity="0.08"/>
<path d="M116.5 212.639V253.5C116.5 254.605 117.395 255.5 118.5 255.5H158.037C159.127 255.5 160.016 254.627 160.037 253.537L160.804 212.472C160.927 205.913 157.825 199.711 152.504 195.875L150.81 194.654C144.014 189.755 134.885 189.61 127.937 194.292L125.323 196.054C119.807 199.771 116.5 205.988 116.5 212.639Z" fill="#BFE0FB" stroke="#4A545A" stroke-width="20"/>
<path d="M481 238.836L348.027 140.5L278 234.13L348.027 339H481V238.836Z" fill="#4B3E16" fill-opacity="0.08"/>
<path d="M300.5 148C353.795 148 397 191.205 397 244.5C397 272.458 390.202 296.387 375.46 313.218C360.928 329.808 337.358 341 300.5 341C267.756 341 243.933 329.968 228.237 313.014C212.426 295.934 204 271.903 204 244.5C204 191.205 247.205 148 300.5 148Z" fill="#454545" stroke="#4E585D" stroke-width="20"/>
<path d="M401 260C401 309.706 377.546 350 313.5 350C255.768 350 226 309.706 226 260C226 210.294 265.175 170 313.5 170C361.825 170 401 210.294 401 260Z" fill="#4D4D4D"/>
<path d="M333 148C349.411 148 365.293 157.496 377.485 174.925C389.655 192.322 397.5 216.89 397.5 244.5C397.5 272.11 389.655 296.678 377.485 314.075C365.293 331.504 349.411 341 333 341C316.589 341 300.707 331.504 288.515 314.075C276.345 296.678 268.5 272.11 268.5 244.5C268.5 216.89 276.345 192.322 288.515 174.925C300.707 157.496 316.589 148 333 148Z" fill="#7BA64F" stroke="#4A545A" stroke-width="20"/>
<ellipse cx="337.5" cy="243" rx="12" ry="16" fill="#41464A"/>
<path d="M527 259.999L481 190V262.499V331.499H527V259.999Z" fill="#4B3E16" fill-opacity="0.08"/>
<path d="M437.5 212.639V253.5C437.5 254.605 438.395 255.5 439.5 255.5H479.037C480.127 255.5 481.016 254.627 481.037 253.537L481.804 212.472C481.927 205.913 478.825 199.711 473.504 195.875L471.81 194.654C465.014 189.755 455.885 189.61 448.937 194.292L446.323 196.054C440.807 199.771 437.5 205.988 437.5 212.639Z" fill="#BFE0FB" stroke="#4A545A" stroke-width="20"/>
</svg>
